<mxfile host="app.diagrams.net" modified="2021-06-15T10:15:45.914Z" agent="5.0 (Macintosh; Intel Mac OS X 10_15_7) AppleWebKit/537.36 (KHTML, like Gecko) Chrome/86.0.4240.80 Safari/537.36" version="14.7.7" etag="-yy5pOXLWeFUdkvGW9w1" type="github" pages="2">
  <diagram id="CP2o8_vx9Uu4diZ9vyuc" name="order">
    <mxGraphModel dx="1497" dy="946" grid="1" gridSize="10" guides="1" tooltips="1" connect="1" arrows="1" fold="1" page="1" pageScale="1" pageWidth="900" pageHeight="1600" background="#ffffff" math="0" shadow="0">
      <root>
        <mxCell id="0" />
        <mxCell id="1" parent="0" />
        <mxCell id="9brnNJr44GSptBX_ziU5-2" value="" style="rounded=1;whiteSpace=wrap;html=1;fillColor=#dae8fc;strokeColor=#6c8ebf;" vertex="1" parent="1">
          <mxGeometry x="628.13" y="1720" width="168.75" height="220" as="geometry" />
        </mxCell>
        <mxCell id="9brnNJr44GSptBX_ziU5-3" style="edgeStyle=orthogonalEdgeStyle;rounded=0;orthogonalLoop=1;jettySize=auto;html=1;exitX=0;exitY=0.25;exitDx=0;exitDy=0;entryX=1;entryY=0.25;entryDx=0;entryDy=0;jumpStyle=arc;" edge="1" parent="1" source="9brnNJr44GSptBX_ziU5-39" target="9brnNJr44GSptBX_ziU5-60">
          <mxGeometry relative="1" as="geometry" />
        </mxCell>
        <mxCell id="9brnNJr44GSptBX_ziU5-4" style="edgeStyle=orthogonalEdgeStyle;rounded=0;orthogonalLoop=1;jettySize=auto;html=1;exitX=1;exitY=0.75;exitDx=0;exitDy=0;entryX=0;entryY=0.75;entryDx=0;entryDy=0;strokeColor=#000000;jumpStyle=arc;" edge="1" parent="1" source="9brnNJr44GSptBX_ziU5-60" target="9brnNJr44GSptBX_ziU5-39">
          <mxGeometry relative="1" as="geometry" />
        </mxCell>
        <mxCell id="9brnNJr44GSptBX_ziU5-5" value="" style="endArrow=none;html=1;strokeColor=#CCCCCC;startArrow=none;" edge="1" parent="1" source="9brnNJr44GSptBX_ziU5-83">
          <mxGeometry width="50" height="50" relative="1" as="geometry">
            <mxPoint x="320" y="1630" as="sourcePoint" />
            <mxPoint x="320" y="10" as="targetPoint" />
          </mxGeometry>
        </mxCell>
        <mxCell id="9brnNJr44GSptBX_ziU5-6" style="edgeStyle=orthogonalEdgeStyle;rounded=0;orthogonalLoop=1;jettySize=auto;html=1;exitX=0.5;exitY=1;exitDx=0;exitDy=0;entryX=1;entryY=0.5;entryDx=0;entryDy=0;" edge="1" parent="1" source="9brnNJr44GSptBX_ziU5-105" target="9brnNJr44GSptBX_ziU5-20">
          <mxGeometry relative="1" as="geometry">
            <mxPoint x="1160" y="310" as="targetPoint" />
            <Array as="points">
              <mxPoint x="673" y="530" />
              <mxPoint x="930" y="530" />
              <mxPoint x="930" y="350" />
            </Array>
          </mxGeometry>
        </mxCell>
        <mxCell id="9brnNJr44GSptBX_ziU5-7" value="完成修改" style="edgeLabel;html=1;align=center;verticalAlign=middle;resizable=0;points=[];" vertex="1" connectable="0" parent="9brnNJr44GSptBX_ziU5-6">
          <mxGeometry x="-0.7124" y="-2" relative="1" as="geometry">
            <mxPoint as="offset" />
          </mxGeometry>
        </mxCell>
        <mxCell id="9brnNJr44GSptBX_ziU5-8" style="edgeStyle=orthogonalEdgeStyle;rounded=0;orthogonalLoop=1;jettySize=auto;html=1;exitX=0.5;exitY=1;exitDx=0;exitDy=0;entryX=0.5;entryY=0;entryDx=0;entryDy=0;" edge="1" parent="1" source="9brnNJr44GSptBX_ziU5-9" target="9brnNJr44GSptBX_ziU5-15">
          <mxGeometry relative="1" as="geometry" />
        </mxCell>
        <mxCell id="9brnNJr44GSptBX_ziU5-9" value="" style="rounded=1;whiteSpace=wrap;html=1;fillColor=#dae8fc;strokeColor=#6c8ebf;align=center;" vertex="1" parent="1">
          <mxGeometry x="402.5" y="150" width="477.5" height="70" as="geometry" />
        </mxCell>
        <mxCell id="9brnNJr44GSptBX_ziU5-10" style="edgeStyle=orthogonalEdgeStyle;rounded=0;orthogonalLoop=1;jettySize=auto;html=1;exitX=0.25;exitY=1;exitDx=0;exitDy=0;entryX=0.5;entryY=0;entryDx=0;entryDy=0;" edge="1" parent="1" source="9brnNJr44GSptBX_ziU5-13" target="9brnNJr44GSptBX_ziU5-22">
          <mxGeometry relative="1" as="geometry">
            <Array as="points">
              <mxPoint x="611" y="140" />
              <mxPoint x="502" y="140" />
            </Array>
          </mxGeometry>
        </mxCell>
        <mxCell id="9brnNJr44GSptBX_ziU5-11" style="edgeStyle=orthogonalEdgeStyle;rounded=0;orthogonalLoop=1;jettySize=auto;html=1;exitX=0.5;exitY=1;exitDx=0;exitDy=0;entryX=0.5;entryY=0;entryDx=0;entryDy=0;" edge="1" parent="1" source="9brnNJr44GSptBX_ziU5-13" target="9brnNJr44GSptBX_ziU5-23">
          <mxGeometry relative="1" as="geometry" />
        </mxCell>
        <mxCell id="9brnNJr44GSptBX_ziU5-12" style="edgeStyle=orthogonalEdgeStyle;rounded=0;orthogonalLoop=1;jettySize=auto;html=1;exitX=0.75;exitY=1;exitDx=0;exitDy=0;entryX=0.5;entryY=0;entryDx=0;entryDy=0;" edge="1" parent="1" source="9brnNJr44GSptBX_ziU5-13" target="9brnNJr44GSptBX_ziU5-24">
          <mxGeometry relative="1" as="geometry">
            <Array as="points">
              <mxPoint x="674" y="140" />
              <mxPoint x="782" y="140" />
            </Array>
          </mxGeometry>
        </mxCell>
        <mxCell id="9brnNJr44GSptBX_ziU5-13" value="Flight 首页" style="rounded=0;whiteSpace=wrap;html=1;fillColor=#ffe6cc;strokeColor=#d79b00;" vertex="1" parent="1">
          <mxGeometry x="579.9999999999999" y="80" width="125" height="40" as="geometry" />
        </mxCell>
        <mxCell id="9brnNJr44GSptBX_ziU5-14" style="edgeStyle=orthogonalEdgeStyle;rounded=0;orthogonalLoop=1;jettySize=auto;html=1;exitX=0.5;exitY=1;exitDx=0;exitDy=0;entryX=0.5;entryY=0;entryDx=0;entryDy=0;" edge="1" parent="1" source="9brnNJr44GSptBX_ziU5-15" target="9brnNJr44GSptBX_ziU5-20">
          <mxGeometry relative="1" as="geometry" />
        </mxCell>
        <mxCell id="9brnNJr44GSptBX_ziU5-15" value="点击 Search 按钮" style="rounded=0;whiteSpace=wrap;html=1;" vertex="1" parent="1">
          <mxGeometry x="578.7499999999999" y="260" width="125" height="40" as="geometry" />
        </mxCell>
        <mxCell id="9brnNJr44GSptBX_ziU5-16" style="edgeStyle=orthogonalEdgeStyle;rounded=0;orthogonalLoop=1;jettySize=auto;html=1;exitX=0;exitY=0.25;exitDx=0;exitDy=0;entryX=1;entryY=0.25;entryDx=0;entryDy=0;" edge="1" parent="1" source="9brnNJr44GSptBX_ziU5-20" target="9brnNJr44GSptBX_ziU5-32">
          <mxGeometry relative="1" as="geometry" />
        </mxCell>
        <mxCell id="9brnNJr44GSptBX_ziU5-17" style="edgeStyle=orthogonalEdgeStyle;rounded=0;orthogonalLoop=1;jettySize=auto;html=1;exitX=0.75;exitY=1;exitDx=0;exitDy=0;entryX=0.5;entryY=0;entryDx=0;entryDy=0;" edge="1" parent="1" source="9brnNJr44GSptBX_ziU5-20" target="9brnNJr44GSptBX_ziU5-105">
          <mxGeometry relative="1" as="geometry" />
        </mxCell>
        <mxCell id="9brnNJr44GSptBX_ziU5-18" value="开始修改" style="edgeLabel;html=1;align=center;verticalAlign=middle;resizable=0;points=[];" vertex="1" connectable="0" parent="9brnNJr44GSptBX_ziU5-17">
          <mxGeometry x="-0.1014" y="2" relative="1" as="geometry">
            <mxPoint as="offset" />
          </mxGeometry>
        </mxCell>
        <mxCell id="9brnNJr44GSptBX_ziU5-19" style="edgeStyle=orthogonalEdgeStyle;rounded=0;jumpStyle=arc;orthogonalLoop=1;jettySize=auto;html=1;exitX=0.25;exitY=1;exitDx=0;exitDy=0;entryX=0.5;entryY=0;entryDx=0;entryDy=0;startArrow=none;startFill=0;strokeColor=#000000;" edge="1" parent="1" source="9brnNJr44GSptBX_ziU5-20" target="9brnNJr44GSptBX_ziU5-35">
          <mxGeometry relative="1" as="geometry">
            <Array as="points">
              <mxPoint x="610" y="390" />
              <mxPoint x="380" y="390" />
              <mxPoint x="380" y="540" />
              <mxPoint x="640" y="540" />
            </Array>
          </mxGeometry>
        </mxCell>
        <mxCell id="9brnNJr44GSptBX_ziU5-20" value="Flight Result 页面" style="rounded=0;whiteSpace=wrap;html=1;fillColor=#ffe6cc;strokeColor=#d79b00;" vertex="1" parent="1">
          <mxGeometry x="578.7499999999999" y="330" width="125" height="40" as="geometry" />
        </mxCell>
        <mxCell id="9brnNJr44GSptBX_ziU5-21" style="edgeStyle=orthogonalEdgeStyle;rounded=0;orthogonalLoop=1;jettySize=auto;html=1;exitX=0;exitY=0.25;exitDx=0;exitDy=0;entryX=1;entryY=0.25;entryDx=0;entryDy=0;" edge="1" parent="1" source="9brnNJr44GSptBX_ziU5-22" target="9brnNJr44GSptBX_ziU5-27">
          <mxGeometry relative="1" as="geometry" />
        </mxCell>
        <mxCell id="9brnNJr44GSptBX_ziU5-22" value="选择出发/到达地点" style="rounded=0;whiteSpace=wrap;html=1;" vertex="1" parent="1">
          <mxGeometry x="439.9999999999999" y="170" width="125" height="40" as="geometry" />
        </mxCell>
        <mxCell id="9brnNJr44GSptBX_ziU5-23" value="选择出行日期，&lt;br&gt;是否往返" style="rounded=0;whiteSpace=wrap;html=1;" vertex="1" parent="1">
          <mxGeometry x="579.9999999999999" y="170" width="125" height="40" as="geometry" />
        </mxCell>
        <mxCell id="9brnNJr44GSptBX_ziU5-24" value="确认乘客，仓位信息" style="rounded=0;whiteSpace=wrap;html=1;" vertex="1" parent="1">
          <mxGeometry x="719.9999999999999" y="170" width="125" height="40" as="geometry" />
        </mxCell>
        <mxCell id="9brnNJr44GSptBX_ziU5-25" value="确认行程参数" style="text;html=1;align=center;verticalAlign=middle;resizable=0;points=[];autosize=1;strokeColor=none;" vertex="1" parent="1">
          <mxGeometry x="400" y="150" width="90" height="20" as="geometry" />
        </mxCell>
        <mxCell id="9brnNJr44GSptBX_ziU5-26" style="edgeStyle=orthogonalEdgeStyle;rounded=0;orthogonalLoop=1;jettySize=auto;html=1;exitX=1;exitY=0.75;exitDx=0;exitDy=0;entryX=0;entryY=0.75;entryDx=0;entryDy=0;" edge="1" parent="1" source="9brnNJr44GSptBX_ziU5-27" target="9brnNJr44GSptBX_ziU5-22">
          <mxGeometry relative="1" as="geometry" />
        </mxCell>
        <mxCell id="9brnNJr44GSptBX_ziU5-27" value="城市/机场信息" style="rounded=0;whiteSpace=wrap;html=1;" vertex="1" parent="1">
          <mxGeometry x="97.49999999999989" y="170" width="125" height="40" as="geometry" />
        </mxCell>
        <mxCell id="9brnNJr44GSptBX_ziU5-28" value="搜索地点" style="text;html=1;align=center;verticalAlign=middle;resizable=0;points=[];autosize=1;strokeColor=none;" vertex="1" parent="1">
          <mxGeometry x="290" y="160" width="60" height="20" as="geometry" />
        </mxCell>
        <mxCell id="9brnNJr44GSptBX_ziU5-29" value="BE" style="rounded=1;whiteSpace=wrap;html=1;fillColor=#f5f5f5;strokeColor=#666666;fontColor=#333333;" vertex="1" parent="1">
          <mxGeometry x="100" y="10" width="120" height="30" as="geometry" />
        </mxCell>
        <mxCell id="9brnNJr44GSptBX_ziU5-30" value="FE" style="rounded=1;whiteSpace=wrap;html=1;fillColor=#f5f5f5;strokeColor=#666666;fontColor=#333333;" vertex="1" parent="1">
          <mxGeometry x="580" y="10" width="120" height="30" as="geometry" />
        </mxCell>
        <mxCell id="9brnNJr44GSptBX_ziU5-31" style="edgeStyle=orthogonalEdgeStyle;rounded=0;orthogonalLoop=1;jettySize=auto;html=1;exitX=1;exitY=0.75;exitDx=0;exitDy=0;entryX=0;entryY=0.75;entryDx=0;entryDy=0;" edge="1" parent="1" source="9brnNJr44GSptBX_ziU5-32" target="9brnNJr44GSptBX_ziU5-20">
          <mxGeometry relative="1" as="geometry" />
        </mxCell>
        <mxCell id="9brnNJr44GSptBX_ziU5-32" value="获取航班结果列表" style="rounded=0;whiteSpace=wrap;html=1;" vertex="1" parent="1">
          <mxGeometry x="97.49999999999989" y="330" width="125" height="40" as="geometry" />
        </mxCell>
        <mxCell id="9brnNJr44GSptBX_ziU5-33" value="POST search&amp;nbsp;" style="text;html=1;align=center;verticalAlign=middle;resizable=0;points=[];autosize=1;strokeColor=none;" vertex="1" parent="1">
          <mxGeometry x="275" y="320" width="90" height="20" as="geometry" />
        </mxCell>
        <mxCell id="9brnNJr44GSptBX_ziU5-34" style="edgeStyle=orthogonalEdgeStyle;rounded=0;orthogonalLoop=1;jettySize=auto;html=1;exitX=0.5;exitY=1;exitDx=0;exitDy=0;entryX=0.5;entryY=0;entryDx=0;entryDy=0;" edge="1" parent="1" source="9brnNJr44GSptBX_ziU5-35" target="9brnNJr44GSptBX_ziU5-37">
          <mxGeometry relative="1" as="geometry" />
        </mxCell>
        <mxCell id="9brnNJr44GSptBX_ziU5-35" value="选择航班" style="rounded=0;whiteSpace=wrap;html=1;" vertex="1" parent="1">
          <mxGeometry x="577.4999999999999" y="570" width="125" height="40" as="geometry" />
        </mxCell>
        <mxCell id="9brnNJr44GSptBX_ziU5-36" style="edgeStyle=orthogonalEdgeStyle;rounded=0;orthogonalLoop=1;jettySize=auto;html=1;exitX=0.5;exitY=1;exitDx=0;exitDy=0;entryX=0.5;entryY=0;entryDx=0;entryDy=0;" edge="1" parent="1" source="9brnNJr44GSptBX_ziU5-37" target="9brnNJr44GSptBX_ziU5-42">
          <mxGeometry relative="1" as="geometry" />
        </mxCell>
        <mxCell id="9brnNJr44GSptBX_ziU5-37" value="信息填写页&lt;br&gt;Fill In Details page" style="rounded=0;whiteSpace=wrap;html=1;fillColor=#ffe6cc;strokeColor=#d79b00;" vertex="1" parent="1">
          <mxGeometry x="577.4999999999999" y="650" width="125" height="40" as="geometry" />
        </mxCell>
        <mxCell id="9brnNJr44GSptBX_ziU5-38" style="edgeStyle=orthogonalEdgeStyle;rounded=0;orthogonalLoop=1;jettySize=auto;html=1;exitX=0.5;exitY=1;exitDx=0;exitDy=0;entryX=0.75;entryY=0;entryDx=0;entryDy=0;" edge="1" parent="1" source="9brnNJr44GSptBX_ziU5-39" target="9brnNJr44GSptBX_ziU5-49">
          <mxGeometry relative="1" as="geometry" />
        </mxCell>
        <mxCell id="9brnNJr44GSptBX_ziU5-39" value="托运行李服务选择" style="rounded=0;whiteSpace=wrap;html=1;" vertex="1" parent="1">
          <mxGeometry x="705.3799999999999" y="920" width="125" height="40" as="geometry" />
        </mxCell>
        <mxCell id="9brnNJr44GSptBX_ziU5-40" style="edgeStyle=orthogonalEdgeStyle;rounded=0;orthogonalLoop=1;jettySize=auto;html=1;exitX=0.75;exitY=1;exitDx=0;exitDy=0;entryX=0.5;entryY=0;entryDx=0;entryDy=0;" edge="1" parent="1" source="9brnNJr44GSptBX_ziU5-42" target="9brnNJr44GSptBX_ziU5-39">
          <mxGeometry relative="1" as="geometry" />
        </mxCell>
        <mxCell id="9brnNJr44GSptBX_ziU5-41" style="edgeStyle=orthogonalEdgeStyle;rounded=0;orthogonalLoop=1;jettySize=auto;html=1;exitX=0.5;exitY=1;exitDx=0;exitDy=0;entryX=0.5;entryY=0;entryDx=0;entryDy=0;jumpStyle=arc;" edge="1" parent="1" source="9brnNJr44GSptBX_ziU5-42" target="9brnNJr44GSptBX_ziU5-49">
          <mxGeometry relative="1" as="geometry" />
        </mxCell>
        <mxCell id="9brnNJr44GSptBX_ziU5-42" value="" style="rounded=1;whiteSpace=wrap;html=1;fillColor=#dae8fc;strokeColor=#6c8ebf;align=center;" vertex="1" parent="1">
          <mxGeometry x="435" y="730" width="410" height="130" as="geometry" />
        </mxCell>
        <mxCell id="9brnNJr44GSptBX_ziU5-43" value="&lt;span style=&quot;background-color: rgb(218 , 232 , 252)&quot;&gt;add to passenger&lt;/span&gt;" style="edgeStyle=orthogonalEdgeStyle;rounded=0;orthogonalLoop=1;jettySize=auto;html=1;exitX=1;exitY=0.5;exitDx=0;exitDy=0;entryX=0.5;entryY=0;entryDx=0;entryDy=0;entryPerimeter=0;" edge="1" parent="1" source="9brnNJr44GSptBX_ziU5-44" target="9brnNJr44GSptBX_ziU5-46">
          <mxGeometry relative="1" as="geometry" />
        </mxCell>
        <mxCell id="9brnNJr44GSptBX_ziU5-44" value="联系人信息填写" style="rounded=0;whiteSpace=wrap;html=1;" vertex="1" parent="1">
          <mxGeometry x="461.8799999999999" y="750" width="125" height="40" as="geometry" />
        </mxCell>
        <mxCell id="9brnNJr44GSptBX_ziU5-45" style="edgeStyle=orthogonalEdgeStyle;rounded=0;orthogonalLoop=1;jettySize=auto;html=1;exitX=0;exitY=0.25;exitDx=0;exitDy=0;entryX=1;entryY=0.25;entryDx=0;entryDy=0;" edge="1" parent="1" source="9brnNJr44GSptBX_ziU5-46" target="9brnNJr44GSptBX_ziU5-57">
          <mxGeometry relative="1" as="geometry" />
        </mxCell>
        <mxCell id="9brnNJr44GSptBX_ziU5-46" value="乘客信息填写" style="rounded=0;whiteSpace=wrap;html=1;" vertex="1" parent="1">
          <mxGeometry x="694.3799999999999" y="800" width="125" height="45" as="geometry" />
        </mxCell>
        <mxCell id="9brnNJr44GSptBX_ziU5-47" value="信息输入" style="text;html=1;align=center;verticalAlign=middle;resizable=0;points=[];autosize=1;strokeColor=none;" vertex="1" parent="1">
          <mxGeometry x="435" y="730" width="60" height="20" as="geometry" />
        </mxCell>
        <mxCell id="9brnNJr44GSptBX_ziU5-48" style="edgeStyle=orthogonalEdgeStyle;rounded=0;orthogonalLoop=1;jettySize=auto;html=1;exitX=0.5;exitY=1;exitDx=0;exitDy=0;entryX=0.5;entryY=0;entryDx=0;entryDy=0;strokeColor=#000000;" edge="1" parent="1" source="9brnNJr44GSptBX_ziU5-49" target="9brnNJr44GSptBX_ziU5-55">
          <mxGeometry relative="1" as="geometry" />
        </mxCell>
        <mxCell id="9brnNJr44GSptBX_ziU5-49" value="点击 Checkout 按钮" style="rounded=0;whiteSpace=wrap;html=1;" vertex="1" parent="1">
          <mxGeometry x="577.8799999999999" y="1000" width="125" height="40" as="geometry" />
        </mxCell>
        <mxCell id="9brnNJr44GSptBX_ziU5-50" style="edgeStyle=orthogonalEdgeStyle;rounded=0;jumpStyle=arc;orthogonalLoop=1;jettySize=auto;html=1;exitX=0.25;exitY=1;exitDx=0;exitDy=0;entryX=0.5;entryY=0;entryDx=0;entryDy=0;startArrow=none;startFill=0;strokeColor=#000000;" edge="1" parent="1" source="9brnNJr44GSptBX_ziU5-52" target="9brnNJr44GSptBX_ziU5-69">
          <mxGeometry relative="1" as="geometry" />
        </mxCell>
        <mxCell id="9brnNJr44GSptBX_ziU5-51" style="edgeStyle=orthogonalEdgeStyle;rounded=0;jumpStyle=arc;orthogonalLoop=1;jettySize=auto;html=1;exitX=0.75;exitY=1;exitDx=0;exitDy=0;entryX=0.5;entryY=0;entryDx=0;entryDy=0;startArrow=none;startFill=0;strokeColor=#000000;" edge="1" parent="1" source="9brnNJr44GSptBX_ziU5-52" target="9brnNJr44GSptBX_ziU5-94">
          <mxGeometry relative="1" as="geometry" />
        </mxCell>
        <mxCell id="9brnNJr44GSptBX_ziU5-52" value="Checkout 页面" style="rounded=0;whiteSpace=wrap;html=1;fillColor=#ffe6cc;strokeColor=#d79b00;" vertex="1" parent="1">
          <mxGeometry x="574.9999999999999" y="1500" width="125" height="40" as="geometry" />
        </mxCell>
        <mxCell id="9brnNJr44GSptBX_ziU5-53" style="edgeStyle=orthogonalEdgeStyle;rounded=0;orthogonalLoop=1;jettySize=auto;html=1;exitX=0.5;exitY=1;exitDx=0;exitDy=0;entryX=0.5;entryY=0;entryDx=0;entryDy=0;strokeColor=#000000;" edge="1" parent="1" source="9brnNJr44GSptBX_ziU5-55" target="9brnNJr44GSptBX_ziU5-64">
          <mxGeometry relative="1" as="geometry" />
        </mxCell>
        <mxCell id="9brnNJr44GSptBX_ziU5-54" style="edgeStyle=orthogonalEdgeStyle;rounded=0;orthogonalLoop=1;jettySize=auto;html=1;exitX=0;exitY=0.25;exitDx=0;exitDy=0;entryX=1;entryY=0.25;entryDx=0;entryDy=0;strokeColor=#000000;" edge="1" parent="1" source="9brnNJr44GSptBX_ziU5-55" target="9brnNJr44GSptBX_ziU5-75">
          <mxGeometry relative="1" as="geometry" />
        </mxCell>
        <mxCell id="9brnNJr44GSptBX_ziU5-55" value="点击 proceed 按钮" style="rounded=0;whiteSpace=wrap;html=1;" vertex="1" parent="1">
          <mxGeometry x="575.3799999999999" y="1070" width="125" height="40" as="geometry" />
        </mxCell>
        <mxCell id="9brnNJr44GSptBX_ziU5-56" style="edgeStyle=orthogonalEdgeStyle;rounded=0;orthogonalLoop=1;jettySize=auto;html=1;exitX=1;exitY=0.75;exitDx=0;exitDy=0;entryX=0;entryY=0.75;entryDx=0;entryDy=0;" edge="1" parent="1" source="9brnNJr44GSptBX_ziU5-57" target="9brnNJr44GSptBX_ziU5-46">
          <mxGeometry relative="1" as="geometry" />
        </mxCell>
        <mxCell id="9brnNJr44GSptBX_ziU5-57" value="1. 可用的联系人信息&lt;br&gt;2. 联系人表单配置信息（需要填写的项目）" style="rounded=0;whiteSpace=wrap;html=1;" vertex="1" parent="1">
          <mxGeometry x="79.99999999999989" y="800" width="125" height="45" as="geometry" />
        </mxCell>
        <mxCell id="9brnNJr44GSptBX_ziU5-58" value="POST form-config" style="text;html=1;align=center;verticalAlign=middle;resizable=0;points=[];autosize=1;strokeColor=none;" vertex="1" parent="1">
          <mxGeometry x="265" y="795" width="110" height="20" as="geometry" />
        </mxCell>
        <mxCell id="9brnNJr44GSptBX_ziU5-59" value="GET passenger/list" style="text;html=1;align=center;verticalAlign=middle;resizable=0;points=[];autosize=1;strokeColor=none;" vertex="1" parent="1">
          <mxGeometry x="260" y="775" width="120" height="20" as="geometry" />
        </mxCell>
        <mxCell id="9brnNJr44GSptBX_ziU5-60" value="行李服务信息" style="rounded=0;whiteSpace=wrap;html=1;" vertex="1" parent="1">
          <mxGeometry x="79.99999999999989" y="920" width="125" height="40" as="geometry" />
        </mxCell>
        <mxCell id="9brnNJr44GSptBX_ziU5-61" value="POST addons" style="text;html=1;align=center;verticalAlign=middle;resizable=0;points=[];autosize=1;strokeColor=none;" vertex="1" parent="1">
          <mxGeometry x="275" y="910" width="90" height="20" as="geometry" />
        </mxCell>
        <mxCell id="9brnNJr44GSptBX_ziU5-62" style="edgeStyle=orthogonalEdgeStyle;rounded=0;orthogonalLoop=1;jettySize=auto;html=1;exitX=0;exitY=0.25;exitDx=0;exitDy=0;entryX=1;entryY=0.5;entryDx=0;entryDy=0;strokeColor=#000000;startArrow=none;startFill=0;" edge="1" parent="1" source="9brnNJr44GSptBX_ziU5-64" target="9brnNJr44GSptBX_ziU5-76">
          <mxGeometry relative="1" as="geometry" />
        </mxCell>
        <mxCell id="9brnNJr44GSptBX_ziU5-63" style="edgeStyle=orthogonalEdgeStyle;rounded=0;orthogonalLoop=1;jettySize=auto;html=1;exitX=0;exitY=0.75;exitDx=0;exitDy=0;entryX=1;entryY=0.25;entryDx=0;entryDy=0;startArrow=none;startFill=0;strokeColor=#000000;" edge="1" parent="1" source="9brnNJr44GSptBX_ziU5-64" target="9brnNJr44GSptBX_ziU5-82">
          <mxGeometry relative="1" as="geometry" />
        </mxCell>
        <mxCell id="9brnNJr44GSptBX_ziU5-64" value="Booking 页面&lt;br&gt;（加载动画开始）" style="rounded=0;whiteSpace=wrap;html=1;fillColor=#ffe6cc;strokeColor=#d79b00;" vertex="1" parent="1">
          <mxGeometry x="575" y="1162.5" width="125" height="70" as="geometry" />
        </mxCell>
        <mxCell id="9brnNJr44GSptBX_ziU5-65" value="POST passenger/detail" style="text;html=1;align=center;verticalAlign=middle;resizable=0;points=[];autosize=1;strokeColor=none;" vertex="1" parent="1">
          <mxGeometry x="250" y="1060" width="140" height="20" as="geometry" />
        </mxCell>
        <mxCell id="9brnNJr44GSptBX_ziU5-66" value="POST create-booking" style="text;html=1;align=center;verticalAlign=middle;resizable=0;points=[];autosize=1;strokeColor=none;" vertex="1" parent="1">
          <mxGeometry x="254" y="1162.5" width="130" height="20" as="geometry" />
        </mxCell>
        <mxCell id="9brnNJr44GSptBX_ziU5-67" style="edgeStyle=orthogonalEdgeStyle;rounded=0;jumpStyle=arc;orthogonalLoop=1;jettySize=auto;html=1;exitX=0;exitY=0.5;exitDx=0;exitDy=0;startArrow=classic;startFill=1;strokeColor=#000000;" edge="1" parent="1" source="9brnNJr44GSptBX_ziU5-69" target="9brnNJr44GSptBX_ziU5-70">
          <mxGeometry relative="1" as="geometry" />
        </mxCell>
        <mxCell id="9brnNJr44GSptBX_ziU5-68" style="edgeStyle=orthogonalEdgeStyle;rounded=0;jumpStyle=arc;orthogonalLoop=1;jettySize=auto;html=1;exitX=1;exitY=0.5;exitDx=0;exitDy=0;entryX=1;entryY=0.5;entryDx=0;entryDy=0;startArrow=none;startFill=0;strokeColor=#000000;" edge="1" parent="1" source="9brnNJr44GSptBX_ziU5-69" target="9brnNJr44GSptBX_ziU5-37">
          <mxGeometry relative="1" as="geometry">
            <Array as="points">
              <mxPoint x="870" y="1610" />
              <mxPoint x="870" y="670" />
            </Array>
          </mxGeometry>
        </mxCell>
        <mxCell id="9brnNJr44GSptBX_ziU5-69" value="点击回退/Cancel 按钮" style="rounded=0;whiteSpace=wrap;html=1;" vertex="1" parent="1">
          <mxGeometry x="469.9999999999999" y="1590" width="125" height="40" as="geometry" />
        </mxCell>
        <mxCell id="9brnNJr44GSptBX_ziU5-70" value="取消订单" style="rounded=0;whiteSpace=wrap;html=1;" vertex="1" parent="1">
          <mxGeometry x="69.99999999999989" y="1590" width="125" height="40" as="geometry" />
        </mxCell>
        <mxCell id="9brnNJr44GSptBX_ziU5-71" value="POST order/cancel" style="text;html=1;align=center;verticalAlign=middle;resizable=0;points=[];autosize=1;strokeColor=none;" vertex="1" parent="1">
          <mxGeometry x="264" y="1590" width="120" height="20" as="geometry" />
        </mxCell>
        <mxCell id="9brnNJr44GSptBX_ziU5-72" value="pending hub response" style="text;html=1;align=center;verticalAlign=middle;resizable=0;points=[];autosize=1;strokeColor=none;" vertex="1" parent="1">
          <mxGeometry x="255" y="1240" width="130" height="20" as="geometry" />
        </mxCell>
        <mxCell id="9brnNJr44GSptBX_ziU5-73" value="POST query-booking" style="text;html=1;align=center;verticalAlign=middle;resizable=0;points=[];autosize=1;strokeColor=none;" vertex="1" parent="1">
          <mxGeometry x="255" y="1310" width="130" height="20" as="geometry" />
        </mxCell>
        <mxCell id="9brnNJr44GSptBX_ziU5-74" style="edgeStyle=orthogonalEdgeStyle;rounded=0;orthogonalLoop=1;jettySize=auto;html=1;exitX=1;exitY=0.75;exitDx=0;exitDy=0;entryX=0;entryY=0.75;entryDx=0;entryDy=0;strokeColor=#000000;" edge="1" parent="1" source="9brnNJr44GSptBX_ziU5-75" target="9brnNJr44GSptBX_ziU5-55">
          <mxGeometry relative="1" as="geometry" />
        </mxCell>
        <mxCell id="9brnNJr44GSptBX_ziU5-75" value="保存乘客信息" style="rounded=0;whiteSpace=wrap;html=1;" vertex="1" parent="1">
          <mxGeometry x="80.37999999999988" y="1070" width="125" height="40" as="geometry" />
        </mxCell>
        <mxCell id="9brnNJr44GSptBX_ziU5-76" value="向供应商创建订单" style="rounded=0;whiteSpace=wrap;html=1;" vertex="1" parent="1">
          <mxGeometry x="80.37999999999988" y="1170" width="125" height="20" as="geometry" />
        </mxCell>
        <mxCell id="9brnNJr44GSptBX_ziU5-77" style="edgeStyle=orthogonalEdgeStyle;rounded=0;orthogonalLoop=1;jettySize=auto;html=1;exitX=0.5;exitY=1;exitDx=0;exitDy=0;entryX=0.5;entryY=0;entryDx=0;entryDy=0;startArrow=none;startFill=0;strokeColor=#000000;" edge="1" parent="1" source="9brnNJr44GSptBX_ziU5-78" target="9brnNJr44GSptBX_ziU5-90">
          <mxGeometry relative="1" as="geometry" />
        </mxCell>
        <mxCell id="9brnNJr44GSptBX_ziU5-78" value="加载动画结束" style="rounded=0;whiteSpace=wrap;html=1;" vertex="1" parent="1">
          <mxGeometry x="574.9999999999999" y="1370" width="125" height="40" as="geometry" />
        </mxCell>
        <mxCell id="9brnNJr44GSptBX_ziU5-79" style="edgeStyle=orthogonalEdgeStyle;rounded=0;orthogonalLoop=1;jettySize=auto;html=1;exitX=0.5;exitY=1;exitDx=0;exitDy=0;entryX=1;entryY=0.25;entryDx=0;entryDy=0;startArrow=none;startFill=0;strokeColor=#000000;" edge="1" parent="1" source="9brnNJr44GSptBX_ziU5-80" target="9brnNJr44GSptBX_ziU5-86">
          <mxGeometry relative="1" as="geometry" />
        </mxCell>
        <mxCell id="9brnNJr44GSptBX_ziU5-80" value="等待10s后重新尝试" style="rounded=0;whiteSpace=wrap;html=1;" vertex="1" parent="1">
          <mxGeometry x="574.9999999999999" y="1270" width="125" height="40" as="geometry" />
        </mxCell>
        <mxCell id="9brnNJr44GSptBX_ziU5-81" style="edgeStyle=orthogonalEdgeStyle;rounded=0;orthogonalLoop=1;jettySize=auto;html=1;exitX=1;exitY=0.75;exitDx=0;exitDy=0;entryX=0.5;entryY=0;entryDx=0;entryDy=0;startArrow=none;startFill=0;strokeColor=#000000;" edge="1" parent="1" source="9brnNJr44GSptBX_ziU5-82" target="9brnNJr44GSptBX_ziU5-80">
          <mxGeometry relative="1" as="geometry" />
        </mxCell>
        <mxCell id="9brnNJr44GSptBX_ziU5-82" value="查询订单是否创建成功" style="rounded=0;whiteSpace=wrap;html=1;" vertex="1" parent="1">
          <mxGeometry x="80" y="1200" width="125" height="60" as="geometry" />
        </mxCell>
        <mxCell id="9brnNJr44GSptBX_ziU5-83" value="POST query-booking" style="text;html=1;align=center;verticalAlign=middle;resizable=0;points=[];autosize=1;strokeColor=none;" vertex="1" parent="1">
          <mxGeometry x="255" y="1194" width="130" height="20" as="geometry" />
        </mxCell>
        <mxCell id="9brnNJr44GSptBX_ziU5-84" value="" style="endArrow=none;html=1;strokeColor=#CCCCCC;" edge="1" parent="1" target="9brnNJr44GSptBX_ziU5-83">
          <mxGeometry width="50" height="50" relative="1" as="geometry">
            <mxPoint x="320" y="1950" as="sourcePoint" />
            <mxPoint x="320" y="10" as="targetPoint" />
          </mxGeometry>
        </mxCell>
        <mxCell id="9brnNJr44GSptBX_ziU5-85" style="edgeStyle=orthogonalEdgeStyle;rounded=0;orthogonalLoop=1;jettySize=auto;html=1;exitX=1;exitY=0.75;exitDx=0;exitDy=0;entryX=0.5;entryY=0;entryDx=0;entryDy=0;startArrow=none;startFill=0;strokeColor=#000000;" edge="1" parent="1" source="9brnNJr44GSptBX_ziU5-86" target="9brnNJr44GSptBX_ziU5-78">
          <mxGeometry relative="1" as="geometry" />
        </mxCell>
        <mxCell id="9brnNJr44GSptBX_ziU5-86" value="查询订单是否创建成功" style="rounded=0;whiteSpace=wrap;html=1;" vertex="1" parent="1">
          <mxGeometry x="79.99999999999989" y="1320" width="125" height="40" as="geometry" />
        </mxCell>
        <mxCell id="9brnNJr44GSptBX_ziU5-87" value="success" style="text;html=1;align=center;verticalAlign=middle;resizable=0;points=[];autosize=1;strokeColor=none;" vertex="1" parent="1">
          <mxGeometry x="289" y="1350" width="60" height="20" as="geometry" />
        </mxCell>
        <mxCell id="9brnNJr44GSptBX_ziU5-88" style="edgeStyle=orthogonalEdgeStyle;rounded=0;orthogonalLoop=1;jettySize=auto;html=1;exitX=0;exitY=0.5;exitDx=0;exitDy=0;entryX=1;entryY=0.5;entryDx=0;entryDy=0;startArrow=none;startFill=0;strokeColor=#000000;" edge="1" parent="1" source="9brnNJr44GSptBX_ziU5-90" target="9brnNJr44GSptBX_ziU5-91">
          <mxGeometry relative="1" as="geometry" />
        </mxCell>
        <mxCell id="9brnNJr44GSptBX_ziU5-89" style="edgeStyle=orthogonalEdgeStyle;rounded=0;orthogonalLoop=1;jettySize=auto;html=1;exitX=0.5;exitY=1;exitDx=0;exitDy=0;entryX=0.5;entryY=0;entryDx=0;entryDy=0;startArrow=none;startFill=0;strokeColor=#000000;" edge="1" parent="1" source="9brnNJr44GSptBX_ziU5-90" target="9brnNJr44GSptBX_ziU5-52">
          <mxGeometry relative="1" as="geometry" />
        </mxCell>
        <mxCell id="9brnNJr44GSptBX_ziU5-90" value="DP 创单流程" style="rounded=0;whiteSpace=wrap;html=1;" vertex="1" parent="1">
          <mxGeometry x="575.3799999999999" y="1440" width="125" height="40" as="geometry" />
        </mxCell>
        <mxCell id="9brnNJr44GSptBX_ziU5-91" value="DP 创单流程" style="rounded=0;whiteSpace=wrap;html=1;" vertex="1" parent="1">
          <mxGeometry x="80.37999999999988" y="1440" width="125" height="40" as="geometry" />
        </mxCell>
        <mxCell id="9brnNJr44GSptBX_ziU5-92" value="POST order/create" style="text;html=1;align=center;verticalAlign=middle;resizable=0;points=[];autosize=1;strokeColor=none;" vertex="1" parent="1">
          <mxGeometry x="255" y="1440" width="120" height="20" as="geometry" />
        </mxCell>
        <mxCell id="9brnNJr44GSptBX_ziU5-93" style="edgeStyle=orthogonalEdgeStyle;rounded=0;jumpStyle=arc;orthogonalLoop=1;jettySize=auto;html=1;exitX=0;exitY=0.5;exitDx=0;exitDy=0;entryX=1;entryY=0.5;entryDx=0;entryDy=0;startArrow=none;startFill=0;strokeColor=#000000;" edge="1" parent="1" source="9brnNJr44GSptBX_ziU5-94" target="9brnNJr44GSptBX_ziU5-96">
          <mxGeometry relative="1" as="geometry" />
        </mxCell>
        <mxCell id="9brnNJr44GSptBX_ziU5-94" value="点击 Pay 按钮" style="rounded=0;whiteSpace=wrap;html=1;" vertex="1" parent="1">
          <mxGeometry x="649.9999999999999" y="1650" width="125" height="40" as="geometry" />
        </mxCell>
        <mxCell id="9brnNJr44GSptBX_ziU5-95" style="edgeStyle=orthogonalEdgeStyle;rounded=0;jumpStyle=arc;orthogonalLoop=1;jettySize=auto;html=1;exitX=0.5;exitY=1;exitDx=0;exitDy=0;startArrow=none;startFill=0;strokeColor=#000000;" edge="1" parent="1" source="9brnNJr44GSptBX_ziU5-96" target="9brnNJr44GSptBX_ziU5-99">
          <mxGeometry relative="1" as="geometry">
            <Array as="points">
              <mxPoint x="133" y="1710" />
              <mxPoint x="713" y="1710" />
            </Array>
          </mxGeometry>
        </mxCell>
        <mxCell id="9brnNJr44GSptBX_ziU5-96" value="支付流程" style="rounded=0;whiteSpace=wrap;html=1;" vertex="1" parent="1">
          <mxGeometry x="69.99999999999989" y="1650" width="125" height="40" as="geometry" />
        </mxCell>
        <mxCell id="9brnNJr44GSptBX_ziU5-97" value="POST order/pay" style="text;html=1;align=center;verticalAlign=middle;resizable=0;points=[];autosize=1;strokeColor=none;" vertex="1" parent="1">
          <mxGeometry x="270" y="1650" width="100" height="20" as="geometry" />
        </mxCell>
        <mxCell id="9brnNJr44GSptBX_ziU5-98" style="edgeStyle=orthogonalEdgeStyle;rounded=0;jumpStyle=arc;orthogonalLoop=1;jettySize=auto;html=1;exitX=0.5;exitY=1;exitDx=0;exitDy=0;entryX=0.5;entryY=0;entryDx=0;entryDy=0;startArrow=none;startFill=0;strokeColor=#000000;" edge="1" parent="1" source="9brnNJr44GSptBX_ziU5-99" target="9brnNJr44GSptBX_ziU5-101">
          <mxGeometry relative="1" as="geometry" />
        </mxCell>
        <mxCell id="9brnNJr44GSptBX_ziU5-99" value="通用支付页面" style="rounded=0;whiteSpace=wrap;html=1;fillColor=#ffe6cc;strokeColor=#d79b00;" vertex="1" parent="1">
          <mxGeometry x="649.9999999999999" y="1750" width="125" height="40" as="geometry" />
        </mxCell>
        <mxCell id="9brnNJr44GSptBX_ziU5-100" style="edgeStyle=orthogonalEdgeStyle;rounded=0;jumpStyle=arc;orthogonalLoop=1;jettySize=auto;html=1;exitX=0.5;exitY=1;exitDx=0;exitDy=0;entryX=0.5;entryY=0;entryDx=0;entryDy=0;startArrow=none;startFill=0;strokeColor=#000000;" edge="1" parent="1" source="9brnNJr44GSptBX_ziU5-101" target="9brnNJr44GSptBX_ziU5-102">
          <mxGeometry relative="1" as="geometry" />
        </mxCell>
        <mxCell id="9brnNJr44GSptBX_ziU5-101" value="Payment Result 页面" style="rounded=0;whiteSpace=wrap;html=1;fillColor=#ffe6cc;strokeColor=#d79b00;" vertex="1" parent="1">
          <mxGeometry x="649.9999999999999" y="1810" width="125" height="40" as="geometry" />
        </mxCell>
        <mxCell id="9brnNJr44GSptBX_ziU5-102" value="Order Detail 页面" style="rounded=0;whiteSpace=wrap;html=1;fillColor=#ffe6cc;strokeColor=#d79b00;" vertex="1" parent="1">
          <mxGeometry x="649.9999999999999" y="1870" width="125" height="40" as="geometry" />
        </mxCell>
        <mxCell id="9brnNJr44GSptBX_ziU5-103" value="通用流程" style="text;html=1;align=center;verticalAlign=middle;resizable=0;points=[];autosize=1;strokeColor=none;" vertex="1" parent="1">
          <mxGeometry x="634.38" y="1720" width="60" height="20" as="geometry" />
        </mxCell>
        <mxCell id="9brnNJr44GSptBX_ziU5-104" value="" style="group" vertex="1" connectable="0" parent="1">
          <mxGeometry x="435" y="420" width="476.25" height="80" as="geometry" />
        </mxCell>
        <mxCell id="9brnNJr44GSptBX_ziU5-105" value="" style="rounded=1;whiteSpace=wrap;html=1;fillColor=#dae8fc;strokeColor=#6c8ebf;align=center;" vertex="1" parent="9brnNJr44GSptBX_ziU5-104">
          <mxGeometry width="476.25" height="80" as="geometry" />
        </mxCell>
        <mxCell id="9brnNJr44GSptBX_ziU5-106" value="修改出行日期" style="rounded=0;whiteSpace=wrap;html=1;" vertex="1" parent="9brnNJr44GSptBX_ziU5-104">
          <mxGeometry x="36.249999999999886" y="25" width="125" height="40" as="geometry" />
        </mxCell>
        <mxCell id="9brnNJr44GSptBX_ziU5-107" value="选择结果排序方式" style="rounded=0;whiteSpace=wrap;html=1;" vertex="1" parent="9brnNJr44GSptBX_ziU5-104">
          <mxGeometry x="176.2499999999999" y="25" width="125" height="40" as="geometry" />
        </mxCell>
        <mxCell id="9brnNJr44GSptBX_ziU5-108" value="确认筛选条件" style="rounded=0;whiteSpace=wrap;html=1;" vertex="1" parent="9brnNJr44GSptBX_ziU5-104">
          <mxGeometry x="316.2499999999999" y="25" width="125" height="40" as="geometry" />
        </mxCell>
        <mxCell id="9brnNJr44GSptBX_ziU5-109" value="筛选/修改信息" style="text;html=1;align=center;verticalAlign=middle;resizable=0;points=[];autosize=1;strokeColor=none;" vertex="1" parent="9brnNJr44GSptBX_ziU5-104">
          <mxGeometry x="1.25" width="90" height="20" as="geometry" />
        </mxCell>
        <mxCell id="9brnNJr44GSptBX_ziU5-110" value="" style="endArrow=none;dashed=1;html=1;dashPattern=1 3;strokeWidth=2;entryX=0.5;entryY=1;entryDx=0;entryDy=0;exitX=0.5;exitY=1;exitDx=0;exitDy=0;" edge="1" parent="1" source="9brnNJr44GSptBX_ziU5-2" target="9brnNJr44GSptBX_ziU5-102">
          <mxGeometry width="50" height="50" relative="1" as="geometry">
            <mxPoint x="700" y="1950" as="sourcePoint" />
            <mxPoint x="750" y="1900" as="targetPoint" />
          </mxGeometry>
        </mxCell>
      </root>
    </mxGraphModel>
  </diagram>
  <diagram id="faigWkIxLLZCqBUkPG64" name="refund">
    <mxGraphModel dx="1497" dy="946" grid="1" gridSize="10" guides="1" tooltips="1" connect="1" arrows="1" fold="1" page="1" pageScale="1" pageWidth="1100" pageHeight="850" math="0" shadow="0">
      <root>
        <mxCell id="c-_Oy_JnO4ktxAfhjKjm-0" />
        <mxCell id="c-_Oy_JnO4ktxAfhjKjm-1" parent="c-_Oy_JnO4ktxAfhjKjm-0" />
      </root>
    </mxGraphModel>
  </diagram>
</mxfile>
